%TF.GenerationSoftware,KiCad,Pcbnew,10.0.5*%
%TF.CreationDate,2026-08-25T13:43:56+05:30*%
%TF.ProjectId,Queaky Stem Toy,51756561-6b79-4205-9374-656d20546f79,rev?*%
%TF.SameCoordinates,Original*%
%TF.FileFunction,Legend,Top*%
%TF.FilePolarity,Positive*%
%FSLAX46Y46*%
G04 Gerber Fmt 4.6, Leading zero omitted, Abs format (unit mm)*
G04 Created by KiCad (PCBNEW 10.0.5) date 2026-08-25 13:43:56*
%MOMM*%
%LPD*%
G01*
G04 APERTURE LIST*
%ADD10C,0.175000*%
%ADD11C,0.150000*%
%ADD12C,0.000000*%
%ADD13C,0.120000*%
G04 APERTURE END LIST*
D10*
X119931797Y-80905233D02*
X119698464Y-80571900D01*
X119531797Y-80905233D02*
X119531797Y-80205233D01*
X119531797Y-80205233D02*
X119798464Y-80205233D01*
X119798464Y-80205233D02*
X119865131Y-80238566D01*
X119865131Y-80238566D02*
X119898464Y-80271900D01*
X119898464Y-80271900D02*
X119931797Y-80338566D01*
X119931797Y-80338566D02*
X119931797Y-80438566D01*
X119931797Y-80438566D02*
X119898464Y-80505233D01*
X119898464Y-80505233D02*
X119865131Y-80538566D01*
X119865131Y-80538566D02*
X119798464Y-80571900D01*
X119798464Y-80571900D02*
X119531797Y-80571900D01*
X120498464Y-80871900D02*
X120431797Y-80905233D01*
X120431797Y-80905233D02*
X120298464Y-80905233D01*
X120298464Y-80905233D02*
X120231797Y-80871900D01*
X120231797Y-80871900D02*
X120198464Y-80805233D01*
X120198464Y-80805233D02*
X120198464Y-80538566D01*
X120198464Y-80538566D02*
X120231797Y-80471900D01*
X120231797Y-80471900D02*
X120298464Y-80438566D01*
X120298464Y-80438566D02*
X120431797Y-80438566D01*
X120431797Y-80438566D02*
X120498464Y-80471900D01*
X120498464Y-80471900D02*
X120531797Y-80538566D01*
X120531797Y-80538566D02*
X120531797Y-80605233D01*
X120531797Y-80605233D02*
X120198464Y-80671900D01*
X120765131Y-80438566D02*
X120931797Y-80905233D01*
X120931797Y-80905233D02*
X121098464Y-80438566D01*
X121365130Y-80838566D02*
X121398464Y-80871900D01*
X121398464Y-80871900D02*
X121365130Y-80905233D01*
X121365130Y-80905233D02*
X121331797Y-80871900D01*
X121331797Y-80871900D02*
X121365130Y-80838566D01*
X121365130Y-80838566D02*
X121365130Y-80905233D01*
X122065130Y-80905233D02*
X121665130Y-80905233D01*
X121865130Y-80905233D02*
X121865130Y-80205233D01*
X121865130Y-80205233D02*
X121798463Y-80305233D01*
X121798463Y-80305233D02*
X121731797Y-80371900D01*
X121731797Y-80371900D02*
X121665130Y-80405233D01*
X122365130Y-80838566D02*
X122398464Y-80871900D01*
X122398464Y-80871900D02*
X122365130Y-80905233D01*
X122365130Y-80905233D02*
X122331797Y-80871900D01*
X122331797Y-80871900D02*
X122365130Y-80838566D01*
X122365130Y-80838566D02*
X122365130Y-80905233D01*
X122831797Y-80205233D02*
X122898463Y-80205233D01*
X122898463Y-80205233D02*
X122965130Y-80238566D01*
X122965130Y-80238566D02*
X122998463Y-80271900D01*
X122998463Y-80271900D02*
X123031797Y-80338566D01*
X123031797Y-80338566D02*
X123065130Y-80471900D01*
X123065130Y-80471900D02*
X123065130Y-80638566D01*
X123065130Y-80638566D02*
X123031797Y-80771900D01*
X123031797Y-80771900D02*
X122998463Y-80838566D01*
X122998463Y-80838566D02*
X122965130Y-80871900D01*
X122965130Y-80871900D02*
X122898463Y-80905233D01*
X122898463Y-80905233D02*
X122831797Y-80905233D01*
X122831797Y-80905233D02*
X122765130Y-80871900D01*
X122765130Y-80871900D02*
X122731797Y-80838566D01*
X122731797Y-80838566D02*
X122698463Y-80771900D01*
X122698463Y-80771900D02*
X122665130Y-80638566D01*
X122665130Y-80638566D02*
X122665130Y-80471900D01*
X122665130Y-80471900D02*
X122698463Y-80338566D01*
X122698463Y-80338566D02*
X122731797Y-80271900D01*
X122731797Y-80271900D02*
X122765130Y-80238566D01*
X122765130Y-80238566D02*
X122831797Y-80205233D01*
D11*
X144547618Y-93954819D02*
X143976190Y-93954819D01*
X144261904Y-93954819D02*
X144261904Y-92954819D01*
X144261904Y-92954819D02*
X144166666Y-93097676D01*
X144166666Y-93097676D02*
X144071428Y-93192914D01*
X144071428Y-93192914D02*
X143976190Y-93240533D01*
X144976190Y-93288152D02*
X144976190Y-93954819D01*
X144976190Y-93383390D02*
X145023809Y-93335771D01*
X145023809Y-93335771D02*
X145119047Y-93288152D01*
X145119047Y-93288152D02*
X145261904Y-93288152D01*
X145261904Y-93288152D02*
X145357142Y-93335771D01*
X145357142Y-93335771D02*
X145404761Y-93431009D01*
X145404761Y-93431009D02*
X145404761Y-93954819D01*
X145738095Y-93288152D02*
X146119047Y-93288152D01*
X145880952Y-93954819D02*
X145880952Y-93097676D01*
X145880952Y-93097676D02*
X145928571Y-93002438D01*
X145928571Y-93002438D02*
X146023809Y-92954819D01*
X146023809Y-92954819D02*
X146119047Y-92954819D01*
X120845237Y-84554819D02*
X120273809Y-84554819D01*
X120559523Y-84554819D02*
X120559523Y-83554819D01*
X120559523Y-83554819D02*
X120464285Y-83697676D01*
X120464285Y-83697676D02*
X120369047Y-83792914D01*
X120369047Y-83792914D02*
X120273809Y-83840533D01*
X121464285Y-83554819D02*
X121559523Y-83554819D01*
X121559523Y-83554819D02*
X121654761Y-83602438D01*
X121654761Y-83602438D02*
X121702380Y-83650057D01*
X121702380Y-83650057D02*
X121749999Y-83745295D01*
X121749999Y-83745295D02*
X121797618Y-83935771D01*
X121797618Y-83935771D02*
X121797618Y-84173866D01*
X121797618Y-84173866D02*
X121749999Y-84364342D01*
X121749999Y-84364342D02*
X121702380Y-84459580D01*
X121702380Y-84459580D02*
X121654761Y-84507200D01*
X121654761Y-84507200D02*
X121559523Y-84554819D01*
X121559523Y-84554819D02*
X121464285Y-84554819D01*
X121464285Y-84554819D02*
X121369047Y-84507200D01*
X121369047Y-84507200D02*
X121321428Y-84459580D01*
X121321428Y-84459580D02*
X121273809Y-84364342D01*
X121273809Y-84364342D02*
X121226190Y-84173866D01*
X121226190Y-84173866D02*
X121226190Y-83935771D01*
X121226190Y-83935771D02*
X121273809Y-83745295D01*
X121273809Y-83745295D02*
X121321428Y-83650057D01*
X121321428Y-83650057D02*
X121369047Y-83602438D01*
X121369047Y-83602438D02*
X121464285Y-83554819D01*
X122416666Y-83554819D02*
X122511904Y-83554819D01*
X122511904Y-83554819D02*
X122607142Y-83602438D01*
X122607142Y-83602438D02*
X122654761Y-83650057D01*
X122654761Y-83650057D02*
X122702380Y-83745295D01*
X122702380Y-83745295D02*
X122749999Y-83935771D01*
X122749999Y-83935771D02*
X122749999Y-84173866D01*
X122749999Y-84173866D02*
X122702380Y-84364342D01*
X122702380Y-84364342D02*
X122654761Y-84459580D01*
X122654761Y-84459580D02*
X122607142Y-84507200D01*
X122607142Y-84507200D02*
X122511904Y-84554819D01*
X122511904Y-84554819D02*
X122416666Y-84554819D01*
X122416666Y-84554819D02*
X122321428Y-84507200D01*
X122321428Y-84507200D02*
X122273809Y-84459580D01*
X122273809Y-84459580D02*
X122226190Y-84364342D01*
X122226190Y-84364342D02*
X122178571Y-84173866D01*
X122178571Y-84173866D02*
X122178571Y-83935771D01*
X122178571Y-83935771D02*
X122226190Y-83745295D01*
X122226190Y-83745295D02*
X122273809Y-83650057D01*
X122273809Y-83650057D02*
X122321428Y-83602438D01*
X122321428Y-83602438D02*
X122416666Y-83554819D01*
X123607142Y-83888152D02*
X123607142Y-84554819D01*
X123178571Y-83888152D02*
X123178571Y-84411961D01*
X123178571Y-84411961D02*
X123226190Y-84507200D01*
X123226190Y-84507200D02*
X123321428Y-84554819D01*
X123321428Y-84554819D02*
X123464285Y-84554819D01*
X123464285Y-84554819D02*
X123559523Y-84507200D01*
X123559523Y-84507200D02*
X123607142Y-84459580D01*
X123940476Y-83888152D02*
X124321428Y-83888152D01*
X124083333Y-84554819D02*
X124083333Y-83697676D01*
X124083333Y-83697676D02*
X124130952Y-83602438D01*
X124130952Y-83602438D02*
X124226190Y-83554819D01*
X124226190Y-83554819D02*
X124321428Y-83554819D01*
X125142857Y-80573866D02*
X125904762Y-80573866D01*
X125523809Y-80954819D02*
X125523809Y-80192914D01*
X126714285Y-80431009D02*
X126857142Y-80478628D01*
X126857142Y-80478628D02*
X126904761Y-80526247D01*
X126904761Y-80526247D02*
X126952380Y-80621485D01*
X126952380Y-80621485D02*
X126952380Y-80764342D01*
X126952380Y-80764342D02*
X126904761Y-80859580D01*
X126904761Y-80859580D02*
X126857142Y-80907200D01*
X126857142Y-80907200D02*
X126761904Y-80954819D01*
X126761904Y-80954819D02*
X126380952Y-80954819D01*
X126380952Y-80954819D02*
X126380952Y-79954819D01*
X126380952Y-79954819D02*
X126714285Y-79954819D01*
X126714285Y-79954819D02*
X126809523Y-80002438D01*
X126809523Y-80002438D02*
X126857142Y-80050057D01*
X126857142Y-80050057D02*
X126904761Y-80145295D01*
X126904761Y-80145295D02*
X126904761Y-80240533D01*
X126904761Y-80240533D02*
X126857142Y-80335771D01*
X126857142Y-80335771D02*
X126809523Y-80383390D01*
X126809523Y-80383390D02*
X126714285Y-80431009D01*
X126714285Y-80431009D02*
X126380952Y-80431009D01*
X127809523Y-80288152D02*
X127809523Y-80954819D01*
X127380952Y-80288152D02*
X127380952Y-80811961D01*
X127380952Y-80811961D02*
X127428571Y-80907200D01*
X127428571Y-80907200D02*
X127523809Y-80954819D01*
X127523809Y-80954819D02*
X127666666Y-80954819D01*
X127666666Y-80954819D02*
X127761904Y-80907200D01*
X127761904Y-80907200D02*
X127809523Y-80859580D01*
X128190476Y-80288152D02*
X128714285Y-80288152D01*
X128714285Y-80288152D02*
X128190476Y-80954819D01*
X128190476Y-80954819D02*
X128714285Y-80954819D01*
X129095238Y-80573866D02*
X129857143Y-80573866D01*
X132573866Y-84488094D02*
X132573866Y-83726190D01*
X132954819Y-84107142D02*
X132192914Y-84107142D01*
X132431009Y-82916666D02*
X132478628Y-82773809D01*
X132478628Y-82773809D02*
X132526247Y-82726190D01*
X132526247Y-82726190D02*
X132621485Y-82678571D01*
X132621485Y-82678571D02*
X132764342Y-82678571D01*
X132764342Y-82678571D02*
X132859580Y-82726190D01*
X132859580Y-82726190D02*
X132907200Y-82773809D01*
X132907200Y-82773809D02*
X132954819Y-82869047D01*
X132954819Y-82869047D02*
X132954819Y-83249999D01*
X132954819Y-83249999D02*
X131954819Y-83249999D01*
X131954819Y-83249999D02*
X131954819Y-82916666D01*
X131954819Y-82916666D02*
X132002438Y-82821428D01*
X132002438Y-82821428D02*
X132050057Y-82773809D01*
X132050057Y-82773809D02*
X132145295Y-82726190D01*
X132145295Y-82726190D02*
X132240533Y-82726190D01*
X132240533Y-82726190D02*
X132335771Y-82773809D01*
X132335771Y-82773809D02*
X132383390Y-82821428D01*
X132383390Y-82821428D02*
X132431009Y-82916666D01*
X132431009Y-82916666D02*
X132431009Y-83249999D01*
X132954819Y-81821428D02*
X132431009Y-81821428D01*
X132431009Y-81821428D02*
X132335771Y-81869047D01*
X132335771Y-81869047D02*
X132288152Y-81964285D01*
X132288152Y-81964285D02*
X132288152Y-82154761D01*
X132288152Y-82154761D02*
X132335771Y-82249999D01*
X132907200Y-81821428D02*
X132954819Y-81916666D01*
X132954819Y-81916666D02*
X132954819Y-82154761D01*
X132954819Y-82154761D02*
X132907200Y-82249999D01*
X132907200Y-82249999D02*
X132811961Y-82297618D01*
X132811961Y-82297618D02*
X132716723Y-82297618D01*
X132716723Y-82297618D02*
X132621485Y-82249999D01*
X132621485Y-82249999D02*
X132573866Y-82154761D01*
X132573866Y-82154761D02*
X132573866Y-81916666D01*
X132573866Y-81916666D02*
X132526247Y-81821428D01*
X132288152Y-81488094D02*
X132288152Y-81107142D01*
X131954819Y-81345237D02*
X132811961Y-81345237D01*
X132811961Y-81345237D02*
X132907200Y-81297618D01*
X132907200Y-81297618D02*
X132954819Y-81202380D01*
X132954819Y-81202380D02*
X132954819Y-81107142D01*
X132573866Y-80773808D02*
X132573866Y-80011904D01*
X129690476Y-97704819D02*
X129690476Y-96704819D01*
X130738094Y-97609580D02*
X130690475Y-97657200D01*
X130690475Y-97657200D02*
X130547618Y-97704819D01*
X130547618Y-97704819D02*
X130452380Y-97704819D01*
X130452380Y-97704819D02*
X130309523Y-97657200D01*
X130309523Y-97657200D02*
X130214285Y-97561961D01*
X130214285Y-97561961D02*
X130166666Y-97466723D01*
X130166666Y-97466723D02*
X130119047Y-97276247D01*
X130119047Y-97276247D02*
X130119047Y-97133390D01*
X130119047Y-97133390D02*
X130166666Y-96942914D01*
X130166666Y-96942914D02*
X130214285Y-96847676D01*
X130214285Y-96847676D02*
X130309523Y-96752438D01*
X130309523Y-96752438D02*
X130452380Y-96704819D01*
X130452380Y-96704819D02*
X130547618Y-96704819D01*
X130547618Y-96704819D02*
X130690475Y-96752438D01*
X130690475Y-96752438D02*
X130738094Y-96800057D01*
X132404761Y-96704819D02*
X131928571Y-96704819D01*
X131928571Y-96704819D02*
X131880952Y-97181009D01*
X131880952Y-97181009D02*
X131928571Y-97133390D01*
X131928571Y-97133390D02*
X132023809Y-97085771D01*
X132023809Y-97085771D02*
X132261904Y-97085771D01*
X132261904Y-97085771D02*
X132357142Y-97133390D01*
X132357142Y-97133390D02*
X132404761Y-97181009D01*
X132404761Y-97181009D02*
X132452380Y-97276247D01*
X132452380Y-97276247D02*
X132452380Y-97514342D01*
X132452380Y-97514342D02*
X132404761Y-97609580D01*
X132404761Y-97609580D02*
X132357142Y-97657200D01*
X132357142Y-97657200D02*
X132261904Y-97704819D01*
X132261904Y-97704819D02*
X132023809Y-97704819D01*
X132023809Y-97704819D02*
X131928571Y-97657200D01*
X131928571Y-97657200D02*
X131880952Y-97609580D01*
X133357142Y-96704819D02*
X132880952Y-96704819D01*
X132880952Y-96704819D02*
X132833333Y-97181009D01*
X132833333Y-97181009D02*
X132880952Y-97133390D01*
X132880952Y-97133390D02*
X132976190Y-97085771D01*
X132976190Y-97085771D02*
X133214285Y-97085771D01*
X133214285Y-97085771D02*
X133309523Y-97133390D01*
X133309523Y-97133390D02*
X133357142Y-97181009D01*
X133357142Y-97181009D02*
X133404761Y-97276247D01*
X133404761Y-97276247D02*
X133404761Y-97514342D01*
X133404761Y-97514342D02*
X133357142Y-97609580D01*
X133357142Y-97609580D02*
X133309523Y-97657200D01*
X133309523Y-97657200D02*
X133214285Y-97704819D01*
X133214285Y-97704819D02*
X132976190Y-97704819D01*
X132976190Y-97704819D02*
X132880952Y-97657200D01*
X132880952Y-97657200D02*
X132833333Y-97609580D01*
X134309523Y-96704819D02*
X133833333Y-96704819D01*
X133833333Y-96704819D02*
X133785714Y-97181009D01*
X133785714Y-97181009D02*
X133833333Y-97133390D01*
X133833333Y-97133390D02*
X133928571Y-97085771D01*
X133928571Y-97085771D02*
X134166666Y-97085771D01*
X134166666Y-97085771D02*
X134261904Y-97133390D01*
X134261904Y-97133390D02*
X134309523Y-97181009D01*
X134309523Y-97181009D02*
X134357142Y-97276247D01*
X134357142Y-97276247D02*
X134357142Y-97514342D01*
X134357142Y-97514342D02*
X134309523Y-97609580D01*
X134309523Y-97609580D02*
X134261904Y-97657200D01*
X134261904Y-97657200D02*
X134166666Y-97704819D01*
X134166666Y-97704819D02*
X133928571Y-97704819D01*
X133928571Y-97704819D02*
X133833333Y-97657200D01*
X133833333Y-97657200D02*
X133785714Y-97609580D01*
X122204819Y-96809523D02*
X121204819Y-96809523D01*
X121681009Y-96809523D02*
X121681009Y-96238095D01*
X122204819Y-96238095D02*
X121204819Y-96238095D01*
X121204819Y-95571428D02*
X121204819Y-95380952D01*
X121204819Y-95380952D02*
X121252438Y-95285714D01*
X121252438Y-95285714D02*
X121347676Y-95190476D01*
X121347676Y-95190476D02*
X121538152Y-95142857D01*
X121538152Y-95142857D02*
X121871485Y-95142857D01*
X121871485Y-95142857D02*
X122061961Y-95190476D01*
X122061961Y-95190476D02*
X122157200Y-95285714D01*
X122157200Y-95285714D02*
X122204819Y-95380952D01*
X122204819Y-95380952D02*
X122204819Y-95571428D01*
X122204819Y-95571428D02*
X122157200Y-95666666D01*
X122157200Y-95666666D02*
X122061961Y-95761904D01*
X122061961Y-95761904D02*
X121871485Y-95809523D01*
X121871485Y-95809523D02*
X121538152Y-95809523D01*
X121538152Y-95809523D02*
X121347676Y-95761904D01*
X121347676Y-95761904D02*
X121252438Y-95666666D01*
X121252438Y-95666666D02*
X121204819Y-95571428D01*
X127154761Y-99954819D02*
X126583333Y-99954819D01*
X126869047Y-99954819D02*
X126869047Y-98954819D01*
X126869047Y-98954819D02*
X126773809Y-99097676D01*
X126773809Y-99097676D02*
X126678571Y-99192914D01*
X126678571Y-99192914D02*
X126583333Y-99240533D01*
X127773809Y-98954819D02*
X127869047Y-98954819D01*
X127869047Y-98954819D02*
X127964285Y-99002438D01*
X127964285Y-99002438D02*
X128011904Y-99050057D01*
X128011904Y-99050057D02*
X128059523Y-99145295D01*
X128059523Y-99145295D02*
X128107142Y-99335771D01*
X128107142Y-99335771D02*
X128107142Y-99573866D01*
X128107142Y-99573866D02*
X128059523Y-99764342D01*
X128059523Y-99764342D02*
X128011904Y-99859580D01*
X128011904Y-99859580D02*
X127964285Y-99907200D01*
X127964285Y-99907200D02*
X127869047Y-99954819D01*
X127869047Y-99954819D02*
X127773809Y-99954819D01*
X127773809Y-99954819D02*
X127678571Y-99907200D01*
X127678571Y-99907200D02*
X127630952Y-99859580D01*
X127630952Y-99859580D02*
X127583333Y-99764342D01*
X127583333Y-99764342D02*
X127535714Y-99573866D01*
X127535714Y-99573866D02*
X127535714Y-99335771D01*
X127535714Y-99335771D02*
X127583333Y-99145295D01*
X127583333Y-99145295D02*
X127630952Y-99050057D01*
X127630952Y-99050057D02*
X127678571Y-99002438D01*
X127678571Y-99002438D02*
X127773809Y-98954819D01*
X128535714Y-99954819D02*
X128535714Y-98954819D01*
X128630952Y-99573866D02*
X128916666Y-99954819D01*
X128916666Y-99288152D02*
X128535714Y-99669104D01*
X137204819Y-97619047D02*
X137204819Y-98190475D01*
X137204819Y-97904761D02*
X136204819Y-97904761D01*
X136204819Y-97904761D02*
X136347676Y-97999999D01*
X136347676Y-97999999D02*
X136442914Y-98095237D01*
X136442914Y-98095237D02*
X136490533Y-98190475D01*
X137204819Y-97190475D02*
X136204819Y-97190475D01*
X136823866Y-97095237D02*
X137204819Y-96809523D01*
X136538152Y-96809523D02*
X136919104Y-97190475D01*
D12*
%TO.C,G\u002A\u002A\u002A*%
G36*
X141827990Y-100012990D02*
G01*
X141882149Y-100127485D01*
X141943693Y-100239187D01*
X142012434Y-100347799D01*
X142088181Y-100453024D01*
X142170746Y-100554565D01*
X142178544Y-100563558D01*
X142201199Y-100589396D01*
X142220650Y-100611148D01*
X142238353Y-100630319D01*
X142255764Y-100648411D01*
X142274337Y-100666930D01*
X142295529Y-100687378D01*
X142320796Y-100711260D01*
X142328476Y-100718465D01*
X142413156Y-100794611D01*
X142497518Y-100863846D01*
X142582852Y-100927071D01*
X142670449Y-100985186D01*
X142761599Y-101039092D01*
X142857591Y-101089690D01*
X142866781Y-101094245D01*
X142980381Y-101145930D01*
X143096911Y-101190475D01*
X143215728Y-101227684D01*
X143336191Y-101257362D01*
X143457656Y-101279312D01*
X143488822Y-101283664D01*
X143521108Y-101287929D01*
X143545900Y-101291298D01*
X143563613Y-101293875D01*
X143574667Y-101295762D01*
X143579477Y-101297065D01*
X143578461Y-101297885D01*
X143572036Y-101298327D01*
X143560619Y-101298495D01*
X143548633Y-101298501D01*
X143525703Y-101298151D01*
X143498740Y-101297283D01*
X143471657Y-101296042D01*
X143454928Y-101295042D01*
X143353343Y-101284811D01*
X143249581Y-101267843D01*
X143145130Y-101244482D01*
X143041479Y-101215076D01*
X142940118Y-101179968D01*
X142912636Y-101169277D01*
X142864156Y-101148893D01*
X142812203Y-101125150D01*
X142758404Y-101098905D01*
X142704385Y-101071018D01*
X142651773Y-101042345D01*
X142602193Y-101013744D01*
X142557271Y-100986073D01*
X142525855Y-100965234D01*
X142425371Y-100892188D01*
X142329212Y-100814942D01*
X142237914Y-100734042D01*
X142152016Y-100650036D01*
X142072057Y-100563469D01*
X141998575Y-100474889D01*
X141932108Y-100384843D01*
X141887043Y-100316447D01*
X141868789Y-100286521D01*
X141850148Y-100254659D01*
X141831503Y-100221627D01*
X141813235Y-100188188D01*
X141795723Y-100155108D01*
X141779349Y-100123148D01*
X141764494Y-100093075D01*
X141751538Y-100065653D01*
X141740863Y-100041645D01*
X141732848Y-100021815D01*
X141727875Y-100006928D01*
X141726325Y-99997749D01*
X141727070Y-99995409D01*
X141732020Y-99992762D01*
X141742732Y-99988213D01*
X141757439Y-99982485D01*
X141768629Y-99978356D01*
X141806898Y-99964536D01*
X141827990Y-100012990D01*
G37*
G36*
X145868697Y-99354858D02*
G01*
X145874308Y-99355597D01*
X145887268Y-99358021D01*
X145887231Y-99390737D01*
X145885684Y-99430860D01*
X145881304Y-99476972D01*
X145874360Y-99527716D01*
X145865122Y-99581736D01*
X145853860Y-99637674D01*
X145840844Y-99694174D01*
X145826344Y-99749877D01*
X145810629Y-99803428D01*
X145796880Y-99845200D01*
X145751802Y-99962723D01*
X145699544Y-100076922D01*
X145640260Y-100187604D01*
X145574107Y-100294573D01*
X145501240Y-100397636D01*
X145421813Y-100496598D01*
X145335982Y-100591265D01*
X145243902Y-100681443D01*
X145145729Y-100766938D01*
X145041617Y-100847554D01*
X144940250Y-100917556D01*
X144827181Y-100986796D01*
X144711398Y-101048586D01*
X144592772Y-101102973D01*
X144471175Y-101150005D01*
X144346478Y-101189729D01*
X144218553Y-101222193D01*
X144087272Y-101247444D01*
X144020936Y-101257298D01*
X143995816Y-101260428D01*
X143967730Y-101263506D01*
X143937689Y-101266462D01*
X143906705Y-101269225D01*
X143875788Y-101271727D01*
X143845949Y-101273896D01*
X143818201Y-101275663D01*
X143793555Y-101276956D01*
X143773021Y-101277708D01*
X143757611Y-101277846D01*
X143748336Y-101277301D01*
X143746012Y-101276360D01*
X143749753Y-101274909D01*
X143760039Y-101273066D01*
X143775462Y-101271031D01*
X143794612Y-101269004D01*
X143802833Y-101268256D01*
X143830233Y-101265479D01*
X143863683Y-101261459D01*
X143901402Y-101256460D01*
X143941608Y-101250743D01*
X143982519Y-101244569D01*
X144022355Y-101238202D01*
X144059334Y-101231903D01*
X144091673Y-101225934D01*
X144094913Y-101225300D01*
X144221179Y-101196872D01*
X144345209Y-101161823D01*
X144466007Y-101120483D01*
X144582580Y-101073181D01*
X144653155Y-101040589D01*
X144700788Y-101017070D01*
X144743030Y-100995199D01*
X144781945Y-100973805D01*
X144819603Y-100951717D01*
X144858069Y-100927764D01*
X144896388Y-100902782D01*
X144958151Y-100860583D01*
X145015237Y-100818837D01*
X145069419Y-100776091D01*
X145122467Y-100730894D01*
X145176154Y-100681792D01*
X145231847Y-100627734D01*
X145319262Y-100536140D01*
X145399130Y-100442726D01*
X145471764Y-100347031D01*
X145537475Y-100248596D01*
X145596574Y-100146961D01*
X145649374Y-100041667D01*
X145685810Y-99958110D01*
X145719659Y-99869150D01*
X145748023Y-99780658D01*
X145771261Y-99691087D01*
X145789736Y-99598894D01*
X145803806Y-99502533D01*
X145812693Y-99414751D01*
X145817574Y-99355666D01*
X145839462Y-99354420D01*
X145854615Y-99354150D01*
X145868697Y-99354858D01*
G37*
G36*
X142626538Y-100007628D02*
G01*
X142652224Y-100008360D01*
X142671324Y-100010814D01*
X142685114Y-100015403D01*
X142694876Y-100022543D01*
X142701500Y-100031908D01*
X142705060Y-100045974D01*
X142703520Y-100062514D01*
X142697499Y-100078441D01*
X142690220Y-100088322D01*
X142683889Y-100094080D01*
X142677482Y-100097779D01*
X142668897Y-100100030D01*
X142656036Y-100101444D01*
X142642105Y-100102336D01*
X142605943Y-100104398D01*
X142604776Y-100130770D01*
X142603968Y-100144881D01*
X142602568Y-100152897D01*
X142599753Y-100156694D01*
X142594698Y-100158147D01*
X142592644Y-100158404D01*
X142581679Y-100159665D01*
X142581679Y-100083639D01*
X142581679Y-100052804D01*
X142581679Y-100027550D01*
X142605603Y-100027550D01*
X142605603Y-100052804D01*
X142606045Y-100066425D01*
X142607195Y-100076745D01*
X142608594Y-100081136D01*
X142614908Y-100083129D01*
X142626406Y-100083379D01*
X142640565Y-100082192D01*
X142654862Y-100079870D01*
X142666772Y-100076719D01*
X142673493Y-100073313D01*
X142679835Y-100062850D01*
X142681365Y-100053077D01*
X142679382Y-100041682D01*
X142672804Y-100033990D01*
X142660689Y-100029486D01*
X142642097Y-100027655D01*
X142634622Y-100027550D01*
X142605603Y-100027550D01*
X142581679Y-100027550D01*
X142581679Y-100007613D01*
X142626538Y-100007628D01*
G37*
G36*
X142932829Y-100005410D02*
G01*
X142954414Y-100012827D01*
X142971520Y-100024947D01*
X142984549Y-100037223D01*
X142973995Y-100042753D01*
X142965623Y-100045676D01*
X142960967Y-100044663D01*
X142950167Y-100035227D01*
X142934717Y-100029346D01*
X142917251Y-100027331D01*
X142900407Y-100029499D01*
X142887176Y-100035877D01*
X142874122Y-100050418D01*
X142866654Y-100067879D01*
X142864749Y-100086433D01*
X142868387Y-100104250D01*
X142877546Y-100119504D01*
X142888255Y-100128296D01*
X142906486Y-100135071D01*
X142925853Y-100135742D01*
X142943753Y-100130443D01*
X142952131Y-100124950D01*
X142963238Y-100118165D01*
X142972416Y-100116720D01*
X142978293Y-100119663D01*
X142979498Y-100126042D01*
X142974658Y-100134907D01*
X142971397Y-100138313D01*
X142953141Y-100150424D01*
X142931189Y-100157285D01*
X142908069Y-100158547D01*
X142886312Y-100153863D01*
X142879730Y-100150884D01*
X142868188Y-100142492D01*
X142857055Y-100130843D01*
X142853812Y-100126414D01*
X142847766Y-100116033D01*
X142844431Y-100105983D01*
X142843055Y-100093172D01*
X142842856Y-100081362D01*
X142843354Y-100064774D01*
X142845322Y-100053102D01*
X142849468Y-100043327D01*
X142853224Y-100037226D01*
X142868800Y-100020393D01*
X142888364Y-100009365D01*
X142910260Y-100004313D01*
X142932829Y-100005410D01*
G37*
G36*
X143192431Y-100007671D02*
G01*
X143206408Y-100008061D01*
X143215709Y-100009104D01*
X143221980Y-100011120D01*
X143226870Y-100014432D01*
X143231938Y-100019269D01*
X143240590Y-100032316D01*
X143243995Y-100047301D01*
X143241942Y-100061607D01*
X143236092Y-100070939D01*
X143231580Y-100076126D01*
X143231721Y-100080217D01*
X143237127Y-100085912D01*
X143240080Y-100088523D01*
X143248506Y-100098351D01*
X143251455Y-100110012D01*
X143251569Y-100114027D01*
X143249632Y-100129736D01*
X143243350Y-100141656D01*
X143232015Y-100150170D01*
X143214920Y-100155659D01*
X143191356Y-100158505D01*
X143167961Y-100159136D01*
X143123971Y-100159136D01*
X143123971Y-100139198D01*
X143147895Y-100139198D01*
X143178908Y-100139198D01*
X143199163Y-100138398D01*
X143212695Y-100135882D01*
X143218782Y-100132991D01*
X143225970Y-100123648D01*
X143227205Y-100111719D01*
X143222294Y-100100135D01*
X143221045Y-100098641D01*
X143216173Y-100094893D01*
X143208672Y-100092656D01*
X143196687Y-100091589D01*
X143181171Y-100091349D01*
X143147895Y-100091349D01*
X143147895Y-100115274D01*
X143147895Y-100139198D01*
X143123971Y-100139198D01*
X143123971Y-100115274D01*
X143123971Y-100083374D01*
X143123971Y-100071412D01*
X143147895Y-100071412D01*
X143176914Y-100071412D01*
X143197342Y-100070415D01*
X143210773Y-100067342D01*
X143214795Y-100065205D01*
X143222254Y-100055894D01*
X143222653Y-100044660D01*
X143217058Y-100034842D01*
X143211953Y-100030974D01*
X143204044Y-100028721D01*
X143191410Y-100027713D01*
X143179177Y-100027550D01*
X143147895Y-100027550D01*
X143147895Y-100049481D01*
X143147895Y-100071412D01*
X143123971Y-100071412D01*
X143123971Y-100049481D01*
X143123971Y-100007613D01*
X143172127Y-100007613D01*
X143192431Y-100007671D01*
G37*
G36*
X143617743Y-100008276D02*
G01*
X143638058Y-100008955D01*
X143652201Y-100009885D01*
X143661976Y-100011435D01*
X143669184Y-100013976D01*
X143675629Y-100017879D01*
X143679888Y-100021034D01*
X143696560Y-100036726D01*
X143706265Y-100053788D01*
X143709993Y-100074122D01*
X143710110Y-100079125D01*
X143706879Y-100104722D01*
X143697233Y-100125770D01*
X143681298Y-100142025D01*
X143675261Y-100145959D01*
X143665989Y-100150866D01*
X143656749Y-100154154D01*
X143645413Y-100156254D01*
X143629853Y-100157597D01*
X143613839Y-100158377D01*
X143570564Y-100160160D01*
X143570564Y-100083553D01*
X143570564Y-100032381D01*
X143593477Y-100032381D01*
X143593492Y-100032534D01*
X143593864Y-100037437D01*
X143594172Y-100048726D01*
X143594389Y-100064813D01*
X143594486Y-100084110D01*
X143594489Y-100087826D01*
X143594489Y-100140128D01*
X143621404Y-100137319D01*
X143636820Y-100135182D01*
X143650299Y-100132398D01*
X143658139Y-100129877D01*
X143670782Y-100120023D01*
X143680525Y-100105141D01*
X143685710Y-100088080D01*
X143686141Y-100081788D01*
X143683447Y-100062274D01*
X143674860Y-100047157D01*
X143662390Y-100036483D01*
X143653580Y-100031436D01*
X143644400Y-100028823D01*
X143632019Y-100028096D01*
X143620580Y-100028389D01*
X143606951Y-100029341D01*
X143597278Y-100030769D01*
X143593477Y-100032381D01*
X143570564Y-100032381D01*
X143570564Y-100006945D01*
X143617743Y-100008276D01*
G37*
G36*
X143953359Y-100017582D02*
G01*
X143953359Y-100027550D01*
X143913484Y-100027550D01*
X143873610Y-100027550D01*
X143873610Y-100049481D01*
X143873610Y-100071412D01*
X143907503Y-100071412D01*
X143923916Y-100071503D01*
X143933932Y-100072088D01*
X143939132Y-100073629D01*
X143941094Y-100076591D01*
X143941396Y-100081381D01*
X143941088Y-100086197D01*
X143939113Y-100089141D01*
X143933897Y-100090675D01*
X143923865Y-100091257D01*
X143907445Y-100091349D01*
X143907304Y-100091349D01*
X143873212Y-100091349D01*
X143874408Y-100114277D01*
X143875603Y-100137205D01*
X143914481Y-100138346D01*
X143932304Y-100138945D01*
X143943629Y-100139754D01*
X143949928Y-100141188D01*
X143952675Y-100143663D01*
X143953343Y-100147595D01*
X143953359Y-100149311D01*
X143953359Y-100159136D01*
X143900945Y-100159136D01*
X143848532Y-100159136D01*
X143851074Y-100132220D01*
X143852109Y-100117056D01*
X143852946Y-100096794D01*
X143853488Y-100074313D01*
X143853644Y-100056459D01*
X143853673Y-100007613D01*
X143903516Y-100007613D01*
X143953359Y-100007613D01*
X143953359Y-100017582D01*
G37*
G36*
X144159695Y-100005897D02*
G01*
X144164876Y-100007197D01*
X144177466Y-100013257D01*
X144188335Y-100022380D01*
X144195258Y-100032399D01*
X144196592Y-100038056D01*
X144193395Y-100042103D01*
X144186007Y-100043505D01*
X144177733Y-100042340D01*
X144171877Y-100038687D01*
X144171203Y-100037459D01*
X144164573Y-100030150D01*
X144153281Y-100026015D01*
X144140018Y-100025133D01*
X144127471Y-100027583D01*
X144118329Y-100033445D01*
X144116671Y-100035847D01*
X144113913Y-100045670D01*
X144117257Y-100054311D01*
X144127189Y-100062183D01*
X144144198Y-100069700D01*
X144163932Y-100075935D01*
X144181214Y-100083945D01*
X144193001Y-100095684D01*
X144199069Y-100109637D01*
X144199195Y-100124288D01*
X144193155Y-100138120D01*
X144180725Y-100149616D01*
X144175231Y-100152617D01*
X144160844Y-100156873D01*
X144143059Y-100158702D01*
X144125707Y-100157938D01*
X144114404Y-100155228D01*
X144105991Y-100149613D01*
X144097378Y-100140712D01*
X144090934Y-100131320D01*
X144088932Y-100125170D01*
X144091938Y-100119430D01*
X144099220Y-100117721D01*
X144108171Y-100120042D01*
X144115130Y-100125167D01*
X144126844Y-100133647D01*
X144140612Y-100137621D01*
X144154411Y-100137313D01*
X144166223Y-100132943D01*
X144174026Y-100124735D01*
X144175899Y-100118485D01*
X144174851Y-100109813D01*
X144168828Y-100102726D01*
X144156877Y-100096555D01*
X144138043Y-100090630D01*
X144135070Y-100089851D01*
X144114218Y-100082526D01*
X144100412Y-100072737D01*
X144092907Y-100059730D01*
X144090925Y-100045025D01*
X144091818Y-100032516D01*
X144095526Y-100024274D01*
X144102822Y-100017308D01*
X144119264Y-100008649D01*
X144139295Y-100004670D01*
X144159695Y-100005897D01*
G37*
G36*
X144363156Y-100082377D02*
G01*
X144362739Y-100108510D01*
X144362270Y-100127746D01*
X144361617Y-100141164D01*
X144360650Y-100149841D01*
X144359238Y-100154856D01*
X144357250Y-100157286D01*
X144354554Y-100158210D01*
X144353932Y-100158307D01*
X144346009Y-100158040D01*
X144342967Y-100156646D01*
X144342068Y-100151935D01*
X144341287Y-100140563D01*
X144340673Y-100123839D01*
X144340275Y-100103075D01*
X144340140Y-100080716D01*
X144340140Y-100007613D01*
X144352191Y-100007613D01*
X144364241Y-100007613D01*
X144363156Y-100082377D01*
G37*
G36*
X144597412Y-100004541D02*
G01*
X144619538Y-100012430D01*
X144621828Y-100013719D01*
X144636461Y-100023705D01*
X144643409Y-100032089D01*
X144642762Y-100039042D01*
X144637265Y-100043467D01*
X144630188Y-100046197D01*
X144623969Y-100044682D01*
X144615791Y-100038566D01*
X144597959Y-100028093D01*
X144578770Y-100025472D01*
X144558371Y-100030722D01*
X144558156Y-100030817D01*
X144542653Y-100041667D01*
X144532279Y-100057119D01*
X144527539Y-100075278D01*
X144528938Y-100094247D01*
X144536642Y-100111635D01*
X144548082Y-100124942D01*
X144561394Y-100132189D01*
X144578736Y-100134336D01*
X144587035Y-100133999D01*
X144601029Y-100132230D01*
X144610449Y-100128447D01*
X144618677Y-100121193D01*
X144619931Y-100119812D01*
X144628806Y-100108563D01*
X144631128Y-100101245D01*
X144626519Y-100097126D01*
X144614601Y-100095472D01*
X144607299Y-100095337D01*
X144594040Y-100095126D01*
X144586881Y-100093972D01*
X144583950Y-100091096D01*
X144583375Y-100085717D01*
X144583374Y-100085368D01*
X144583637Y-100080750D01*
X144585422Y-100077837D01*
X144590223Y-100076237D01*
X144599534Y-100075556D01*
X144614847Y-100075402D01*
X144621255Y-100075399D01*
X144659136Y-100075399D01*
X144659048Y-100086365D01*
X144656343Y-100100747D01*
X144649543Y-100117069D01*
X144640327Y-100131768D01*
X144634686Y-100138011D01*
X144614970Y-100151016D01*
X144592124Y-100157779D01*
X144568314Y-100157988D01*
X144545705Y-100151332D01*
X144544883Y-100150932D01*
X144532172Y-100142315D01*
X144520213Y-100130565D01*
X144516970Y-100126354D01*
X144510782Y-100116342D01*
X144507339Y-100106844D01*
X144505877Y-100094834D01*
X144505619Y-100081430D01*
X144506089Y-100064993D01*
X144508000Y-100053419D01*
X144512099Y-100043627D01*
X144516589Y-100036309D01*
X144532124Y-100019623D01*
X144551945Y-100008515D01*
X144574295Y-100003361D01*
X144597412Y-100004541D01*
G37*
G36*
X144811069Y-100008271D02*
G01*
X144816110Y-100010829D01*
X144822265Y-100016164D01*
X144830390Y-100025154D01*
X144841342Y-100038675D01*
X144855976Y-100057604D01*
X144859119Y-100061721D01*
X144900376Y-100115829D01*
X144902900Y-100090630D01*
X144904320Y-100072696D01*
X144905423Y-100051913D01*
X144905891Y-100036522D01*
X144906273Y-100021620D01*
X144907228Y-100012985D01*
X144909375Y-100008911D01*
X144913328Y-100007688D01*
X144916326Y-100007613D01*
X144926294Y-100007613D01*
X144926294Y-100080716D01*
X144926186Y-100104046D01*
X144925884Y-100124526D01*
X144925425Y-100140863D01*
X144924844Y-100151762D01*
X144924207Y-100155907D01*
X144919136Y-100156836D01*
X144912358Y-100156128D01*
X144905976Y-100152501D01*
X144896127Y-100143230D01*
X144882522Y-100128007D01*
X144864875Y-100106524D01*
X144859618Y-100099913D01*
X144816640Y-100045564D01*
X144815533Y-100102350D01*
X144814427Y-100159136D01*
X144804568Y-100159136D01*
X144794709Y-100159136D01*
X144794709Y-100083374D01*
X144794709Y-100007613D01*
X144806286Y-100007613D01*
X144811069Y-100008271D01*
G37*
G36*
X142298061Y-100079392D02*
G01*
X142338046Y-100079424D01*
X142371298Y-100079505D01*
X142398437Y-100079656D01*
X142420084Y-100079902D01*
X142436859Y-100080264D01*
X142449384Y-100080765D01*
X142458279Y-100081428D01*
X142464165Y-100082275D01*
X142467662Y-100083329D01*
X142469391Y-100084612D01*
X142469973Y-100086147D01*
X142470030Y-100087362D01*
X142469878Y-100089083D01*
X142469005Y-100090537D01*
X142466792Y-100091746D01*
X142462617Y-100092733D01*
X142455861Y-100093520D01*
X142445902Y-100094130D01*
X142432120Y-100094586D01*
X142413894Y-100094909D01*
X142390603Y-100095123D01*
X142361627Y-100095250D01*
X142326345Y-100095313D01*
X142284136Y-100095335D01*
X142250721Y-100095337D01*
X142203382Y-100095331D01*
X142163396Y-100095299D01*
X142130145Y-100095219D01*
X142103006Y-100095067D01*
X142081359Y-100094821D01*
X142064583Y-100094459D01*
X142052058Y-100093958D01*
X142043163Y-100093295D01*
X142037278Y-100092448D01*
X142033780Y-100091395D01*
X142032051Y-100090112D01*
X142031469Y-100088577D01*
X142031412Y-100087362D01*
X142031565Y-100085640D01*
X142032438Y-100084186D01*
X142034651Y-100082977D01*
X142038825Y-100081990D01*
X142045582Y-100081203D01*
X142055540Y-100080593D01*
X142069323Y-100080138D01*
X142087549Y-100079814D01*
X142110839Y-100079600D01*
X142139815Y-100079473D01*
X142175098Y-100079410D01*
X142217307Y-100079389D01*
X142250721Y-100079387D01*
X142298061Y-100079392D01*
G37*
G36*
X145298377Y-100075405D02*
G01*
X145338133Y-100075437D01*
X145371160Y-100075519D01*
X145398083Y-100075673D01*
X145419526Y-100075922D01*
X145436111Y-100076289D01*
X145448463Y-100076797D01*
X145457204Y-100077469D01*
X145462959Y-100078328D01*
X145466351Y-100079397D01*
X145468004Y-100080697D01*
X145468541Y-100082254D01*
X145468586Y-100083374D01*
X145468432Y-100085103D01*
X145467555Y-100086562D01*
X145465330Y-100087774D01*
X145461135Y-100088762D01*
X145454346Y-100089549D01*
X145444339Y-100090157D01*
X145430491Y-100090611D01*
X145412178Y-100090931D01*
X145388776Y-100091143D01*
X145359663Y-100091267D01*
X145324215Y-100091328D01*
X145281807Y-100091347D01*
X145251271Y-100091349D01*
X145204164Y-100091344D01*
X145164409Y-100091311D01*
X145131381Y-100091230D01*
X145104458Y-100091076D01*
X145083015Y-100090827D01*
X145066430Y-100090459D01*
X145054078Y-100089951D01*
X145045337Y-100089279D01*
X145039582Y-100088420D01*
X145036190Y-100087352D01*
X145034537Y-100086051D01*
X145034001Y-100084495D01*
X145033955Y-100083374D01*
X145034109Y-100081646D01*
X145034987Y-100080187D01*
X145037211Y-100078975D01*
X145041406Y-100077987D01*
X145048196Y-100077200D01*
X145058203Y-100076591D01*
X145072051Y-100076138D01*
X145090364Y-100075817D01*
X145113765Y-100075606D01*
X145142878Y-100075481D01*
X145178327Y-100075421D01*
X145220734Y-100075401D01*
X145251271Y-100075399D01*
X145298377Y-100075405D01*
G37*
G36*
X143791545Y-97131091D02*
G01*
X143830763Y-97131644D01*
X143865321Y-97132653D01*
X143896876Y-97134228D01*
X143927083Y-97136482D01*
X143957598Y-97139525D01*
X143990077Y-97143469D01*
X144026177Y-97148426D01*
X144043076Y-97150875D01*
X144161238Y-97172132D01*
X144278230Y-97200977D01*
X144393441Y-97237150D01*
X144506261Y-97280390D01*
X144616080Y-97330439D01*
X144722289Y-97387035D01*
X144824277Y-97449920D01*
X144921433Y-97518832D01*
X144939550Y-97532784D01*
X144969021Y-97556602D01*
X145000208Y-97583273D01*
X145032114Y-97611829D01*
X145063737Y-97641300D01*
X145094081Y-97670718D01*
X145122145Y-97699114D01*
X145146930Y-97725520D01*
X145167437Y-97748966D01*
X145182668Y-97768483D01*
X145182797Y-97768665D01*
X145187408Y-97775313D01*
X145188097Y-97777280D01*
X145184159Y-97774384D01*
X145175155Y-97766671D01*
X145166624Y-97759184D01*
X145153611Y-97747632D01*
X145137553Y-97733293D01*
X145119883Y-97717450D01*
X145109447Y-97708063D01*
X145016554Y-97628751D01*
X144922210Y-97557015D01*
X144825746Y-97492494D01*
X144726489Y-97434828D01*
X144623768Y-97383654D01*
X144516912Y-97338612D01*
X144405249Y-97299342D01*
X144288108Y-97265482D01*
X144284316Y-97264498D01*
X144185635Y-97242463D01*
X144082326Y-97226048D01*
X143975455Y-97215288D01*
X143866085Y-97210218D01*
X143755281Y-97210871D01*
X143644106Y-97217282D01*
X143533625Y-97229485D01*
X143474866Y-97238455D01*
X143398868Y-97252352D01*
X143326398Y-97268072D01*
X143255304Y-97286194D01*
X143183434Y-97307294D01*
X143108637Y-97331949D01*
X143054191Y-97351338D01*
X142996320Y-97373805D01*
X142934578Y-97400153D01*
X142871337Y-97429302D01*
X142808967Y-97460168D01*
X142764021Y-97483883D01*
X142669746Y-97537440D01*
X142581948Y-97592335D01*
X142499133Y-97649685D01*
X142419806Y-97710601D01*
X142342474Y-97776200D01*
X142265641Y-97847594D01*
X142232642Y-97880095D01*
X142182956Y-97930739D01*
X142138502Y-97978134D01*
X142098070Y-98023738D01*
X142060454Y-98069008D01*
X142024446Y-98115400D01*
X141988838Y-98164372D01*
X141952422Y-98217380D01*
X141949838Y-98221239D01*
X141885909Y-98323482D01*
X141829409Y-98427935D01*
X141780204Y-98534961D01*
X141738161Y-98644920D01*
X141703146Y-98758174D01*
X141675027Y-98875083D01*
X141653668Y-98996010D01*
X141647852Y-99038665D01*
X141644638Y-99070336D01*
X141642063Y-99108504D01*
X141640132Y-99151716D01*
X141638852Y-99198519D01*
X141638230Y-99247461D01*
X141638271Y-99297088D01*
X141638982Y-99345947D01*
X141640370Y-99392586D01*
X141642440Y-99435552D01*
X141645199Y-99473392D01*
X141645936Y-99481271D01*
X141655045Y-99565156D01*
X141665397Y-99644468D01*
X141676822Y-99717996D01*
X141686301Y-99770199D01*
X141690650Y-99792995D01*
X141694283Y-99812948D01*
X141696985Y-99828802D01*
X141698541Y-99839298D01*
X141698759Y-99843164D01*
X141696960Y-99840361D01*
X141693447Y-99831613D01*
X141688872Y-99818593D01*
X141687187Y-99813478D01*
X141657152Y-99713615D01*
X141633037Y-99616962D01*
X141614535Y-99521741D01*
X141601341Y-99426177D01*
X141593151Y-99328493D01*
X141590004Y-99248005D01*
X141590296Y-99146875D01*
X141595622Y-99048850D01*
X141606208Y-98952380D01*
X141622278Y-98855915D01*
X141644055Y-98757907D01*
X141671765Y-98656804D01*
X141679103Y-98632617D01*
X141700621Y-98568348D01*
X141726494Y-98500242D01*
X141755783Y-98430426D01*
X141787552Y-98361027D01*
X141820862Y-98294172D01*
X141854774Y-98231989D01*
X141859111Y-98224474D01*
X141928841Y-98112359D01*
X142004871Y-98005060D01*
X142086990Y-97902792D01*
X142174988Y-97805765D01*
X142268652Y-97714192D01*
X142367774Y-97628285D01*
X142472142Y-97548256D01*
X142581545Y-97474316D01*
X142640735Y-97438120D01*
X142757199Y-97373534D01*
X142874627Y-97316757D01*
X142993411Y-97267645D01*
X143113940Y-97226054D01*
X143236606Y-97191838D01*
X143361800Y-97164854D01*
X143395571Y-97158877D01*
X143441311Y-97151366D01*
X143481886Y-97145277D01*
X143519014Y-97140473D01*
X143554413Y-97136816D01*
X143589801Y-97134168D01*
X143626895Y-97132393D01*
X143667414Y-97131354D01*
X143713074Y-97130913D01*
X143746012Y-97130882D01*
X143791545Y-97131091D01*
G37*
G36*
X143213688Y-99320844D02*
G01*
X143208820Y-99324448D01*
X143198253Y-99331689D01*
X143183003Y-99341904D01*
X143164087Y-99354428D01*
X143142520Y-99368598D01*
X143119320Y-99383750D01*
X143095502Y-99399218D01*
X143072083Y-99414339D01*
X143050078Y-99428450D01*
X143030504Y-99440885D01*
X143018304Y-99448541D01*
X142961127Y-99483926D01*
X142908199Y-99516126D01*
X142858304Y-99545806D01*
X142810229Y-99573631D01*
X142762757Y-99600264D01*
X142714676Y-99626371D01*
X142664771Y-99652616D01*
X142611827Y-99679663D01*
X142554629Y-99708178D01*
X142491963Y-99738824D01*
X142456074Y-99756179D01*
X142424598Y-99771357D01*
X142395349Y-99785471D01*
X142369111Y-99798143D01*
X142346667Y-99808994D01*
X142328802Y-99817644D01*
X142316298Y-99823715D01*
X142309940Y-99826828D01*
X142309326Y-99827140D01*
X142307817Y-99824524D01*
X142307135Y-99815940D01*
X142307332Y-99805615D01*
X142308539Y-99782322D01*
X142362370Y-99754300D01*
X142453955Y-99706764D01*
X142549623Y-99657373D01*
X142646977Y-99607356D01*
X142743621Y-99557942D01*
X142837156Y-99510362D01*
X142892699Y-99482240D01*
X142931237Y-99462757D01*
X142969937Y-99443176D01*
X143007762Y-99424022D01*
X143043676Y-99405820D01*
X143076643Y-99389096D01*
X143105627Y-99374375D01*
X143129592Y-99362182D01*
X143147502Y-99353043D01*
X143147895Y-99352842D01*
X143168939Y-99342153D01*
X143187041Y-99333112D01*
X143201211Y-99326201D01*
X143210461Y-99321898D01*
X143213802Y-99320686D01*
X143213688Y-99320844D01*
G37*
G36*
X142654272Y-98484691D02*
G01*
X142714267Y-98484737D01*
X142773930Y-98484815D01*
X142832705Y-98484925D01*
X142890040Y-98485067D01*
X142945379Y-98485241D01*
X142998171Y-98485445D01*
X143047860Y-98485681D01*
X143093893Y-98485947D01*
X143135715Y-98486242D01*
X143172774Y-98486568D01*
X143204515Y-98486923D01*
X143230384Y-98487307D01*
X143249827Y-98487720D01*
X143262292Y-98488161D01*
X143265525Y-98488373D01*
X143322945Y-98496666D01*
X143376786Y-98510849D01*
X143426524Y-98530609D01*
X143471639Y-98555631D01*
X143511606Y-98585601D01*
X143545905Y-98620204D01*
X143574012Y-98659127D01*
X143586250Y-98681459D01*
X143599755Y-98711117D01*
X143609345Y-98738188D01*
X143615570Y-98765166D01*
X143618979Y-98794542D01*
X143620120Y-98828809D01*
X143620128Y-98835305D01*
X143619937Y-98858982D01*
X143619333Y-98876693D01*
X143618068Y-98890449D01*
X143615897Y-98902256D01*
X143612574Y-98914123D01*
X143609236Y-98924100D01*
X143593311Y-98961513D01*
X143572885Y-98994182D01*
X143547381Y-99022599D01*
X143516221Y-99047254D01*
X143478829Y-99068638D01*
X143434626Y-99087242D01*
X143406082Y-99096815D01*
X143393972Y-99100924D01*
X143385662Y-99104422D01*
X143383155Y-99106260D01*
X143386718Y-99108301D01*
X143396229Y-99111740D01*
X143409919Y-99115961D01*
X143416051Y-99117698D01*
X143468737Y-99135550D01*
X143515592Y-99158263D01*
X143556416Y-99185657D01*
X143591004Y-99217550D01*
X143619156Y-99253761D01*
X143640667Y-99294109D01*
X143653110Y-99329787D01*
X143657744Y-99354371D01*
X143660028Y-99384095D01*
X143660003Y-99416488D01*
X143657708Y-99449081D01*
X143653181Y-99479404D01*
X143650531Y-99491239D01*
X143633375Y-99543329D01*
X143609191Y-99591712D01*
X143578176Y-99636053D01*
X143544879Y-99671948D01*
X143506393Y-99704451D01*
X143465344Y-99731014D01*
X143420870Y-99751986D01*
X143372105Y-99767717D01*
X143318187Y-99778557D01*
X143267719Y-99784182D01*
X143257353Y-99784692D01*
X143240269Y-99785179D01*
X143217132Y-99785641D01*
X143188609Y-99786075D01*
X143155367Y-99786480D01*
X143118071Y-99786854D01*
X143077390Y-99787194D01*
X143033989Y-99787499D01*
X142988535Y-99787767D01*
X142941694Y-99787995D01*
X142894134Y-99788182D01*
X142846521Y-99788326D01*
X142799521Y-99788424D01*
X142753801Y-99788475D01*
X142710027Y-99788477D01*
X142668867Y-99788427D01*
X142630987Y-99788325D01*
X142597053Y-99788166D01*
X142567732Y-99787951D01*
X142543691Y-99787676D01*
X142525597Y-99787340D01*
X142514115Y-99786940D01*
X142509912Y-99786475D01*
X142509905Y-99786454D01*
X142513331Y-99784277D01*
X142523031Y-99778998D01*
X142538139Y-99771066D01*
X142557788Y-99760929D01*
X142581112Y-99749038D01*
X142607244Y-99735839D01*
X142618563Y-99730157D01*
X142649796Y-99714461D01*
X142682356Y-99698017D01*
X142714539Y-99681690D01*
X142744646Y-99666346D01*
X142770974Y-99652848D01*
X142791389Y-99642290D01*
X142855558Y-99608869D01*
X143028642Y-99608800D01*
X143074682Y-99608735D01*
X143113555Y-99608528D01*
X143146067Y-99608104D01*
X143173026Y-99607385D01*
X143195239Y-99606294D01*
X143213512Y-99604755D01*
X143228654Y-99602691D01*
X143241470Y-99600026D01*
X143252768Y-99596682D01*
X143263356Y-99592582D01*
X143274040Y-99587651D01*
X143279475Y-99584947D01*
X143310623Y-99565853D01*
X143335570Y-99542853D01*
X143354765Y-99515280D01*
X143368652Y-99482464D01*
X143377678Y-99443740D01*
X143378779Y-99436394D01*
X143380529Y-99405118D01*
X143377529Y-99373976D01*
X143370253Y-99344629D01*
X143359172Y-99318744D01*
X143344758Y-99297983D01*
X143337483Y-99290901D01*
X143327506Y-99283841D01*
X143313399Y-99275509D01*
X143299418Y-99268303D01*
X143273500Y-99255980D01*
X142961483Y-99254867D01*
X142649465Y-99253754D01*
X142649465Y-99156178D01*
X142649465Y-99058602D01*
X142664418Y-99057866D01*
X142671031Y-99057729D01*
X142684874Y-99057592D01*
X142705203Y-99057456D01*
X142731275Y-99057325D01*
X142762345Y-99057203D01*
X142797669Y-99057091D01*
X142836503Y-99056993D01*
X142878102Y-99056912D01*
X142920611Y-99056852D01*
X142970481Y-99056789D01*
X143013041Y-99056711D01*
X143048955Y-99056593D01*
X143078888Y-99056413D01*
X143103506Y-99056148D01*
X143123473Y-99055775D01*
X143139454Y-99055271D01*
X143152112Y-99054613D01*
X143162115Y-99053778D01*
X143170125Y-99052743D01*
X143176808Y-99051485D01*
X143182828Y-99049980D01*
X143188851Y-99048207D01*
X143191168Y-99047492D01*
X143208182Y-99041787D01*
X143224642Y-99035548D01*
X143236993Y-99030123D01*
X143237024Y-99030108D01*
X143270463Y-99009106D01*
X143298102Y-98982891D01*
X143319532Y-98952124D01*
X143334347Y-98917469D01*
X143342137Y-98879586D01*
X143343280Y-98857654D01*
X143340154Y-98817828D01*
X143330747Y-98782897D01*
X143315013Y-98752784D01*
X143292908Y-98727414D01*
X143264387Y-98706711D01*
X143249575Y-98698957D01*
X143221663Y-98685776D01*
X142743170Y-98683782D01*
X142264677Y-98681789D01*
X142169272Y-98586110D01*
X142073866Y-98490432D01*
X142089523Y-98487651D01*
X142096026Y-98487206D01*
X142109951Y-98486799D01*
X142130742Y-98486428D01*
X142157847Y-98486095D01*
X142190711Y-98485797D01*
X142228780Y-98485535D01*
X142271502Y-98485309D01*
X142318321Y-98485118D01*
X142368684Y-98484962D01*
X142422037Y-98484840D01*
X142477826Y-98484752D01*
X142535497Y-98484698D01*
X142594497Y-98484678D01*
X142654272Y-98484691D01*
G37*
G36*
X145273915Y-98592569D02*
G01*
X145264508Y-98599155D01*
X145249590Y-98609182D01*
X145229781Y-98622249D01*
X145205705Y-98637959D01*
X145177981Y-98655911D01*
X145147233Y-98675706D01*
X145114082Y-98696944D01*
X145079150Y-98719227D01*
X145043057Y-98742155D01*
X145006426Y-98765329D01*
X144969879Y-98788349D01*
X144934037Y-98810816D01*
X144904363Y-98829320D01*
X144874648Y-98847804D01*
X144844131Y-98866788D01*
X144814281Y-98885362D01*
X144786563Y-98902611D01*
X144762446Y-98917623D01*
X144743395Y-98929485D01*
X144740878Y-98931053D01*
X144694131Y-98960066D01*
X144643495Y-98991298D01*
X144589771Y-99024269D01*
X144533757Y-99058495D01*
X144476253Y-99093495D01*
X144418058Y-99128786D01*
X144359971Y-99163888D01*
X144302793Y-99198318D01*
X144247322Y-99231594D01*
X144194358Y-99263234D01*
X144144701Y-99292757D01*
X144099148Y-99319680D01*
X144058501Y-99343521D01*
X144023558Y-99363799D01*
X144013170Y-99369766D01*
X143986676Y-99385030D01*
X143960221Y-99400437D01*
X143934811Y-99415385D01*
X143911450Y-99429275D01*
X143891140Y-99441508D01*
X143874886Y-99451483D01*
X143863691Y-99458601D01*
X143858902Y-99461958D01*
X143854145Y-99468136D01*
X143855249Y-99472481D01*
X143858582Y-99473296D01*
X143863891Y-99471674D01*
X143874840Y-99467247D01*
X143889887Y-99460670D01*
X143907488Y-99452599D01*
X143909422Y-99451691D01*
X143932865Y-99440669D01*
X143959688Y-99428067D01*
X143986049Y-99415689D01*
X144002205Y-99408107D01*
X144049057Y-99386126D01*
X144049057Y-99587215D01*
X144049057Y-99788304D01*
X143902186Y-99788304D01*
X143868718Y-99788234D01*
X143837786Y-99788035D01*
X143810289Y-99787724D01*
X143787130Y-99787315D01*
X143769209Y-99786826D01*
X143757428Y-99786272D01*
X143752686Y-99785669D01*
X143752657Y-99785645D01*
X143752167Y-99781276D01*
X143751706Y-99769652D01*
X143751282Y-99751494D01*
X143750905Y-99727524D01*
X143750582Y-99698461D01*
X143750322Y-99665026D01*
X143750133Y-99627939D01*
X143750024Y-99587923D01*
X143749999Y-99557196D01*
X143749999Y-99331405D01*
X143790870Y-99303278D01*
X143854740Y-99259416D01*
X143913477Y-99219287D01*
X143968434Y-99181984D01*
X144020968Y-99146603D01*
X144072431Y-99112238D01*
X144124179Y-99077983D01*
X144177565Y-99042933D01*
X144233945Y-99006181D01*
X144276341Y-98978684D01*
X144305776Y-98959652D01*
X144329521Y-98944411D01*
X144348566Y-98932397D01*
X144363903Y-98923049D01*
X144376525Y-98915805D01*
X144387423Y-98910103D01*
X144397589Y-98905380D01*
X144408015Y-98901074D01*
X144419693Y-98896624D01*
X144423877Y-98895070D01*
X144520613Y-98859318D01*
X144611335Y-98825967D01*
X144697453Y-98794507D01*
X144780378Y-98764428D01*
X144861519Y-98735221D01*
X144942287Y-98706377D01*
X145024093Y-98677385D01*
X145108348Y-98647737D01*
X145115698Y-98645159D01*
X145146060Y-98634515D01*
X145174938Y-98624390D01*
X145201218Y-98615175D01*
X145223786Y-98607260D01*
X145241526Y-98601038D01*
X145253326Y-98596897D01*
X145256255Y-98595868D01*
X145267644Y-98592079D01*
X145275247Y-98589956D01*
X145277189Y-98589822D01*
X145273915Y-98592569D01*
G37*
G36*
X145447172Y-98867278D02*
G01*
X145468310Y-98876972D01*
X145483133Y-98889198D01*
X145497302Y-98908718D01*
X145504526Y-98929492D01*
X145505508Y-98950528D01*
X145500956Y-98970834D01*
X145491575Y-98989418D01*
X145478071Y-99005288D01*
X145461148Y-99017452D01*
X145441514Y-99024916D01*
X145419873Y-99026690D01*
X145396932Y-99021780D01*
X145390666Y-99019207D01*
X145375228Y-99009546D01*
X145361760Y-98996419D01*
X145352571Y-98982282D01*
X145350523Y-98976552D01*
X145348098Y-98966891D01*
X145134206Y-98966912D01*
X144920313Y-98966933D01*
X144876451Y-98993272D01*
X144858926Y-99003769D01*
X144836493Y-99017165D01*
X144811105Y-99032296D01*
X144784717Y-99047996D01*
X144759282Y-99063102D01*
X144758822Y-99063375D01*
X144734347Y-99077936D01*
X144709759Y-99092635D01*
X144686759Y-99106452D01*
X144667049Y-99118364D01*
X144652328Y-99127348D01*
X144651161Y-99128068D01*
X144636368Y-99137122D01*
X144616621Y-99149089D01*
X144593826Y-99162822D01*
X144569891Y-99177170D01*
X144551475Y-99188158D01*
X144530809Y-99200502D01*
X144512465Y-99211544D01*
X144497559Y-99220602D01*
X144487212Y-99226998D01*
X144482540Y-99230051D01*
X144482464Y-99230113D01*
X144482359Y-99231635D01*
X144484636Y-99234571D01*
X144489866Y-99239367D01*
X144498617Y-99246466D01*
X144511459Y-99256313D01*
X144528961Y-99269351D01*
X144551691Y-99286024D01*
X144580221Y-99306778D01*
X144587568Y-99312106D01*
X144617140Y-99333562D01*
X144643302Y-99352592D01*
X144667264Y-99370090D01*
X144690234Y-99386948D01*
X144713424Y-99404059D01*
X144738042Y-99422316D01*
X144765298Y-99442612D01*
X144796401Y-99465838D01*
X144832562Y-99492889D01*
X144836007Y-99495467D01*
X144900515Y-99543802D01*
X144959247Y-99587908D01*
X145012140Y-99627738D01*
X145059129Y-99663242D01*
X145100150Y-99694370D01*
X145135139Y-99721075D01*
X145164031Y-99743305D01*
X145186761Y-99761013D01*
X145203267Y-99774150D01*
X145213482Y-99782666D01*
X145217343Y-99786512D01*
X145217377Y-99786641D01*
X145213508Y-99786947D01*
X145202371Y-99787234D01*
X145184676Y-99787498D01*
X145161129Y-99787734D01*
X145132438Y-99787936D01*
X145099312Y-99788099D01*
X145062458Y-99788218D01*
X145022585Y-99788287D01*
X144990580Y-99788304D01*
X144763783Y-99788304D01*
X144708469Y-99747359D01*
X144686976Y-99731476D01*
X144660313Y-99711814D01*
X144629747Y-99689304D01*
X144596545Y-99664877D01*
X144561973Y-99639463D01*
X144527297Y-99613994D01*
X144493783Y-99589400D01*
X144462699Y-99566611D01*
X144435310Y-99546558D01*
X144420666Y-99535854D01*
X144379128Y-99505410D01*
X144340555Y-99476932D01*
X144305353Y-99450729D01*
X144273931Y-99427114D01*
X144246695Y-99406397D01*
X144224053Y-99388890D01*
X144206413Y-99374904D01*
X144194182Y-99364750D01*
X144187766Y-99358741D01*
X144186892Y-99357226D01*
X144190920Y-99354099D01*
X144200671Y-99347715D01*
X144214964Y-99338810D01*
X144232621Y-99328123D01*
X144247687Y-99319191D01*
X144269238Y-99306468D01*
X144290385Y-99293885D01*
X144309310Y-99282530D01*
X144324198Y-99273490D01*
X144330172Y-99269796D01*
X144340220Y-99263676D01*
X144355943Y-99254313D01*
X144376103Y-99242434D01*
X144399459Y-99228767D01*
X144424773Y-99214040D01*
X144445808Y-99201865D01*
X144474256Y-99185375D01*
X144503997Y-99168022D01*
X144533230Y-99150865D01*
X144560158Y-99134962D01*
X144582978Y-99121371D01*
X144593343Y-99115134D01*
X144617698Y-99100496D01*
X144645918Y-99083688D01*
X144674955Y-99066519D01*
X144701761Y-99050794D01*
X144708979Y-99046590D01*
X144732510Y-99032888D01*
X144760427Y-99016597D01*
X144790239Y-98999172D01*
X144819458Y-98982067D01*
X144841027Y-98969419D01*
X144882397Y-98945135D01*
X145379220Y-98945135D01*
X145380823Y-98956804D01*
X145388505Y-98971131D01*
X145400082Y-98983077D01*
X145408775Y-98988201D01*
X145422013Y-98989990D01*
X145437507Y-98987219D01*
X145451662Y-98980742D01*
X145456698Y-98976788D01*
X145467307Y-98962258D01*
X145471131Y-98946882D01*
X145469096Y-98931855D01*
X145462127Y-98918372D01*
X145451149Y-98907630D01*
X145437087Y-98900823D01*
X145420867Y-98899148D01*
X145403412Y-98903798D01*
X145401096Y-98904932D01*
X145389946Y-98914709D01*
X145382262Y-98929114D01*
X145379220Y-98945135D01*
X144882397Y-98945135D01*
X144913264Y-98927016D01*
X145128933Y-98927016D01*
X145344602Y-98927016D01*
X145352290Y-98909637D01*
X145365005Y-98889808D01*
X145382296Y-98875432D01*
X145402719Y-98866734D01*
X145424826Y-98863941D01*
X145447172Y-98867278D01*
G37*
G36*
X142577584Y-98815076D02*
G01*
X142586546Y-98816223D01*
X142588171Y-98817290D01*
X142588381Y-98821775D01*
X142588562Y-98833681D01*
X142588712Y-98852457D01*
X142588831Y-98877549D01*
X142588919Y-98908405D01*
X142588975Y-98944471D01*
X142588997Y-98985196D01*
X142588985Y-99030026D01*
X142588939Y-99078408D01*
X142588858Y-99129789D01*
X142588740Y-99183618D01*
X142588688Y-99203829D01*
X142587660Y-99586309D01*
X142450093Y-99657252D01*
X142419520Y-99672984D01*
X142391155Y-99687512D01*
X142365783Y-99700441D01*
X142344185Y-99711374D01*
X142327145Y-99719916D01*
X142315445Y-99725671D01*
X142309867Y-99728244D01*
X142309536Y-99728343D01*
X142309142Y-99724460D01*
X142308763Y-99713104D01*
X142308403Y-99694781D01*
X142308064Y-99669992D01*
X142307751Y-99639241D01*
X142307467Y-99603031D01*
X142307214Y-99561866D01*
X142306997Y-99516249D01*
X142306818Y-99466682D01*
X142306682Y-99413670D01*
X142306591Y-99357715D01*
X142306548Y-99299320D01*
X142306545Y-99280149D01*
X142306545Y-98831806D01*
X142323492Y-98829690D01*
X142334071Y-98828663D01*
X142352044Y-98827276D01*
X142376838Y-98825566D01*
X142407881Y-98823571D01*
X142444603Y-98821326D01*
X142486431Y-98818868D01*
X142532793Y-98816234D01*
X142537300Y-98815982D01*
X142561088Y-98814994D01*
X142577584Y-98815076D01*
G37*
G36*
X145279474Y-99175256D02*
G01*
X145294353Y-99178831D01*
X145308663Y-99185136D01*
X145311193Y-99186712D01*
X145322084Y-99197010D01*
X145332396Y-99211599D01*
X145340480Y-99227597D01*
X145344692Y-99242121D01*
X145344953Y-99245798D01*
X145341422Y-99269656D01*
X145331742Y-99290220D01*
X145317122Y-99306724D01*
X145298766Y-99318398D01*
X145277884Y-99324476D01*
X145255680Y-99324187D01*
X145233409Y-99316789D01*
X145215995Y-99305195D01*
X145203709Y-99289981D01*
X145195612Y-99271699D01*
X145190209Y-99255980D01*
X145055543Y-99254929D01*
X144920877Y-99253879D01*
X144858790Y-99290527D01*
X144835305Y-99304447D01*
X144810923Y-99318999D01*
X144787809Y-99332883D01*
X144768129Y-99344801D01*
X144758990Y-99350393D01*
X144743426Y-99359742D01*
X144730191Y-99367261D01*
X144720838Y-99372092D01*
X144717122Y-99373448D01*
X144711753Y-99370939D01*
X144703219Y-99364835D01*
X144699726Y-99361957D01*
X144686485Y-99350629D01*
X144697732Y-99342749D01*
X144703777Y-99338714D01*
X144713035Y-99332868D01*
X144726070Y-99324870D01*
X144743445Y-99314382D01*
X144765723Y-99301065D01*
X144793468Y-99284579D01*
X144827243Y-99264586D01*
X144847340Y-99252712D01*
X144865570Y-99241947D01*
X145225930Y-99241947D01*
X145226527Y-99253671D01*
X145231570Y-99271415D01*
X145241992Y-99283272D01*
X145257715Y-99289175D01*
X145267137Y-99289874D01*
X145282858Y-99287773D01*
X145295635Y-99280534D01*
X145296527Y-99279797D01*
X145307914Y-99265964D01*
X145311560Y-99250330D01*
X145307386Y-99233244D01*
X145307063Y-99232551D01*
X145296456Y-99218312D01*
X145282115Y-99209898D01*
X145265961Y-99207564D01*
X145249915Y-99211563D01*
X145235898Y-99222151D01*
X145235134Y-99223036D01*
X145228350Y-99232628D01*
X145225930Y-99241947D01*
X144865570Y-99241947D01*
X144905953Y-99218100D01*
X145049513Y-99218100D01*
X145193073Y-99218100D01*
X145212744Y-99198429D01*
X145229217Y-99184371D01*
X145245387Y-99176635D01*
X145263988Y-99174272D01*
X145279474Y-99175256D01*
G37*
G36*
X144045070Y-98780729D02*
G01*
X144045070Y-99085022D01*
X144034104Y-99095169D01*
X144029080Y-99099189D01*
X144018433Y-99107262D01*
X144003003Y-99118775D01*
X143983632Y-99133113D01*
X143961162Y-99149659D01*
X143936435Y-99167801D01*
X143910290Y-99186922D01*
X143883571Y-99206408D01*
X143857119Y-99225643D01*
X143831774Y-99244014D01*
X143808379Y-99260904D01*
X143787775Y-99275700D01*
X143770803Y-99287786D01*
X143762958Y-99293310D01*
X143749999Y-99302379D01*
X143749999Y-98889407D01*
X143749999Y-98476436D01*
X143897534Y-98476436D01*
X144045070Y-98476436D01*
X144045070Y-98780729D01*
G37*
G36*
X145632811Y-99037617D02*
G01*
X145636099Y-99039662D01*
X145652417Y-99053473D01*
X145662110Y-99069140D01*
X145666518Y-99089000D01*
X145666868Y-99093438D01*
X145665015Y-99117114D01*
X145656691Y-99136469D01*
X145642499Y-99150865D01*
X145623041Y-99159666D01*
X145601821Y-99162275D01*
X145579674Y-99158755D01*
X145560905Y-99148090D01*
X145545245Y-99130127D01*
X145545049Y-99129826D01*
X145535781Y-99115576D01*
X145235188Y-99114901D01*
X144934596Y-99114226D01*
X144841725Y-99169679D01*
X144815369Y-99185392D01*
X144787692Y-99201848D01*
X144759536Y-99218552D01*
X144731742Y-99235008D01*
X144705149Y-99250720D01*
X144680600Y-99265193D01*
X144658935Y-99277929D01*
X144640994Y-99288435D01*
X144627619Y-99296213D01*
X144619650Y-99300767D01*
X144617732Y-99301773D01*
X144614435Y-99299783D01*
X144606511Y-99294762D01*
X144600350Y-99290807D01*
X144590663Y-99284090D01*
X144584528Y-99278922D01*
X144583403Y-99277263D01*
X144586622Y-99274271D01*
X144595295Y-99268398D01*
X144607905Y-99260636D01*
X144616271Y-99255749D01*
X144627198Y-99249451D01*
X144640715Y-99241604D01*
X144657344Y-99231902D01*
X144677608Y-99220039D01*
X144702026Y-99205708D01*
X144731123Y-99188602D01*
X144765419Y-99168417D01*
X144805437Y-99144844D01*
X144851698Y-99117578D01*
X144861296Y-99111920D01*
X144888520Y-99095870D01*
X145568272Y-99095870D01*
X145570794Y-99105377D01*
X145577016Y-99116114D01*
X145578595Y-99118108D01*
X145591310Y-99128031D01*
X145605551Y-99130662D01*
X145619645Y-99125914D01*
X145626271Y-99120588D01*
X145634223Y-99107939D01*
X145635945Y-99093934D01*
X145632189Y-99080538D01*
X145623707Y-99069713D01*
X145611254Y-99063422D01*
X145604034Y-99062589D01*
X145591755Y-99065837D01*
X145580079Y-99074067D01*
X145571443Y-99085013D01*
X145568272Y-99095870D01*
X144888520Y-99095870D01*
X144917916Y-99078539D01*
X145228141Y-99078528D01*
X145538366Y-99078518D01*
X145546341Y-99063677D01*
X145558722Y-99048187D01*
X145575587Y-99037293D01*
X145594910Y-99031538D01*
X145614660Y-99031465D01*
X145632811Y-99037617D01*
G37*
G36*
X145309054Y-97862341D02*
G01*
X145325128Y-97877012D01*
X145345018Y-97897130D01*
X145367845Y-97921697D01*
X145392727Y-97949712D01*
X145418785Y-97980178D01*
X145445140Y-98012095D01*
X145470911Y-98044464D01*
X145481196Y-98057754D01*
X145529829Y-98125267D01*
X145577360Y-98199222D01*
X145622991Y-98278094D01*
X145665925Y-98360356D01*
X145705364Y-98444482D01*
X145740510Y-98528946D01*
X145769864Y-98610109D01*
X145777865Y-98635796D01*
X145786777Y-98667196D01*
X145796070Y-98702182D01*
X145805212Y-98738622D01*
X145813671Y-98774389D01*
X145820916Y-98807353D01*
X145826416Y-98835385D01*
X145827226Y-98840011D01*
X145832327Y-98872031D01*
X145837113Y-98906141D01*
X145841513Y-98941423D01*
X145845453Y-98976957D01*
X145848863Y-99011823D01*
X145851670Y-99045101D01*
X145853802Y-99075871D01*
X145855189Y-99103214D01*
X145855757Y-99126211D01*
X145855435Y-99143940D01*
X145854151Y-99155483D01*
X145852216Y-99159765D01*
X145850584Y-99156858D01*
X145848512Y-99147495D01*
X145846273Y-99133162D01*
X145844265Y-99116522D01*
X145835532Y-99048908D01*
X145823399Y-98976840D01*
X145808401Y-98902802D01*
X145791070Y-98829278D01*
X145771941Y-98758752D01*
X145756860Y-98709701D01*
X145718137Y-98601553D01*
X145673393Y-98496852D01*
X145622334Y-98395118D01*
X145564668Y-98295868D01*
X145500101Y-98198622D01*
X145428341Y-98102896D01*
X145349096Y-98008210D01*
X145292774Y-97946290D01*
X145238515Y-97888466D01*
X145264221Y-97867396D01*
X145289926Y-97846326D01*
X145309054Y-97862341D01*
G37*
%TO.C,1nf*%
D13*
X141130000Y-91120000D02*
X141130000Y-81880000D01*
X142570000Y-91120000D02*
X141130000Y-91120000D01*
X146370000Y-91120000D02*
X144930000Y-91120000D01*
X141130000Y-81880000D02*
X142570000Y-81880000D01*
X144930000Y-81880000D02*
X146370000Y-81880000D01*
X146370000Y-81880000D02*
X146370000Y-91120000D01*
%TO.C,100uf*%
X126087621Y-88500000D02*
G75*
G02*
X119547621Y-88500000I-3270000J0D01*
G01*
X119547621Y-88500000D02*
G75*
G02*
X126087621Y-88500000I3270000J0D01*
G01*
X126057621Y-88098000D02*
X126057621Y-88902000D01*
X126017621Y-87867000D02*
X126017621Y-89133000D01*
X125977621Y-87699000D02*
X125977621Y-89301000D01*
X125937621Y-87561000D02*
X125937621Y-89439000D01*
X125897621Y-87442000D02*
X125897621Y-89558000D01*
X125857621Y-87335000D02*
X125857621Y-89665000D01*
X125817621Y-87239000D02*
X125817621Y-89761000D01*
X125777621Y-87150000D02*
X125777621Y-89850000D01*
X125737621Y-87068000D02*
X125737621Y-89932000D01*
X125697621Y-86991000D02*
X125697621Y-90009000D01*
X125657621Y-86919000D02*
X125657621Y-90081000D01*
X125617621Y-86851000D02*
X125617621Y-90149000D01*
X125577621Y-86786000D02*
X125577621Y-90214000D01*
X125537621Y-86725000D02*
X125537621Y-90275000D01*
X125497621Y-86666000D02*
X125497621Y-90334000D01*
X125457621Y-86610000D02*
X125457621Y-90390000D01*
X125417621Y-86557000D02*
X125417621Y-90443000D01*
X125377621Y-86505000D02*
X125377621Y-90495000D01*
X125337621Y-86456000D02*
X125337621Y-90544000D01*
X125297621Y-86409000D02*
X125297621Y-90591000D01*
X125257621Y-86363000D02*
X125257621Y-90637000D01*
X125217621Y-86319000D02*
X125217621Y-90681000D01*
X125177621Y-86277000D02*
X125177621Y-90723000D01*
X125137621Y-86236000D02*
X125137621Y-90764000D01*
X125097621Y-89540000D02*
X125097621Y-90804000D01*
X125097621Y-86196000D02*
X125097621Y-87460000D01*
X125057621Y-89540000D02*
X125057621Y-90842000D01*
X125057621Y-86158000D02*
X125057621Y-87460000D01*
X125017621Y-89540000D02*
X125017621Y-90879000D01*
X125017621Y-86121000D02*
X125017621Y-87460000D01*
X124977621Y-89540000D02*
X124977621Y-90915000D01*
X124977621Y-86085000D02*
X124977621Y-87460000D01*
X124937621Y-89540000D02*
X124937621Y-90950000D01*
X124937621Y-86050000D02*
X124937621Y-87460000D01*
X124897621Y-89540000D02*
X124897621Y-90983000D01*
X124897621Y-86017000D02*
X124897621Y-87460000D01*
X124857621Y-89540000D02*
X124857621Y-91016000D01*
X124857621Y-85984000D02*
X124857621Y-87460000D01*
X124817621Y-89540000D02*
X124817621Y-91047000D01*
X124817621Y-85953000D02*
X124817621Y-87460000D01*
X124777621Y-89540000D02*
X124777621Y-91077000D01*
X124777621Y-85923000D02*
X124777621Y-87460000D01*
X124737621Y-89540000D02*
X124737621Y-91107000D01*
X124737621Y-85893000D02*
X124737621Y-87460000D01*
X124697621Y-89540000D02*
X124697621Y-91136000D01*
X124697621Y-85864000D02*
X124697621Y-87460000D01*
X124657621Y-89540000D02*
X124657621Y-91163000D01*
X124657621Y-85837000D02*
X124657621Y-87460000D01*
X124617621Y-89540000D02*
X124617621Y-91190000D01*
X124617621Y-85810000D02*
X124617621Y-87460000D01*
X124577621Y-89540000D02*
X124577621Y-91216000D01*
X124577621Y-85784000D02*
X124577621Y-87460000D01*
X124537621Y-89540000D02*
X124537621Y-91241000D01*
X124537621Y-85759000D02*
X124537621Y-87460000D01*
X124497621Y-89540000D02*
X124497621Y-91265000D01*
X124497621Y-85735000D02*
X124497621Y-87460000D01*
X124457621Y-89540000D02*
X124457621Y-91289000D01*
X124457621Y-85711000D02*
X124457621Y-87460000D01*
X124417621Y-89540000D02*
X124417621Y-91312000D01*
X124417621Y-85688000D02*
X124417621Y-87460000D01*
X124377621Y-89540000D02*
X124377621Y-91334000D01*
X124377621Y-85666000D02*
X124377621Y-87460000D01*
X124337621Y-89540000D02*
X124337621Y-91355000D01*
X124337621Y-85645000D02*
X124337621Y-87460000D01*
X124297621Y-89540000D02*
X124297621Y-91376000D01*
X124297621Y-85624000D02*
X124297621Y-87460000D01*
X124257621Y-89540000D02*
X124257621Y-91396000D01*
X124257621Y-85604000D02*
X124257621Y-87460000D01*
X124217621Y-89540000D02*
X124217621Y-91415000D01*
X124217621Y-85585000D02*
X124217621Y-87460000D01*
X124177621Y-89540000D02*
X124177621Y-91434000D01*
X124177621Y-85566000D02*
X124177621Y-87460000D01*
X124137621Y-89540000D02*
X124137621Y-91452000D01*
X124137621Y-85548000D02*
X124137621Y-87460000D01*
X124097621Y-89540000D02*
X124097621Y-91469000D01*
X124097621Y-85531000D02*
X124097621Y-87460000D01*
X124057621Y-89540000D02*
X124057621Y-91486000D01*
X124057621Y-85514000D02*
X124057621Y-87460000D01*
X124017621Y-89540000D02*
X124017621Y-91502000D01*
X124017621Y-85498000D02*
X124017621Y-87460000D01*
X123977621Y-89540000D02*
X123977621Y-91517000D01*
X123977621Y-85483000D02*
X123977621Y-87460000D01*
X123937621Y-89540000D02*
X123937621Y-91532000D01*
X123937621Y-85468000D02*
X123937621Y-87460000D01*
X123897621Y-89540000D02*
X123897621Y-91547000D01*
X123897621Y-85453000D02*
X123897621Y-87460000D01*
X123857621Y-89540000D02*
X123857621Y-91560000D01*
X123857621Y-85440000D02*
X123857621Y-87460000D01*
X123817621Y-89540000D02*
X123817621Y-91573000D01*
X123817621Y-85427000D02*
X123817621Y-87460000D01*
X123777621Y-89540000D02*
X123777621Y-91586000D01*
X123777621Y-85414000D02*
X123777621Y-87460000D01*
X123737621Y-89540000D02*
X123737621Y-91598000D01*
X123737621Y-85402000D02*
X123737621Y-87460000D01*
X123697621Y-89540000D02*
X123697621Y-91609000D01*
X123697621Y-85391000D02*
X123697621Y-87460000D01*
X123657621Y-89540000D02*
X123657621Y-91620000D01*
X123657621Y-85380000D02*
X123657621Y-87460000D01*
X123617621Y-89540000D02*
X123617621Y-91631000D01*
X123617621Y-85369000D02*
X123617621Y-87460000D01*
X123577621Y-89540000D02*
X123577621Y-91640000D01*
X123577621Y-85360000D02*
X123577621Y-87460000D01*
X123537621Y-89540000D02*
X123537621Y-91650000D01*
X123537621Y-85350000D02*
X123537621Y-87460000D01*
X123497621Y-89540000D02*
X123497621Y-91659000D01*
X123497621Y-85341000D02*
X123497621Y-87460000D01*
X123457621Y-89540000D02*
X123457621Y-91667000D01*
X123457621Y-85333000D02*
X123457621Y-87460000D01*
X123417621Y-89540000D02*
X123417621Y-91674000D01*
X123417621Y-85326000D02*
X123417621Y-87460000D01*
X123377621Y-89540000D02*
X123377621Y-91682000D01*
X123377621Y-85318000D02*
X123377621Y-87460000D01*
X123337621Y-89540000D02*
X123337621Y-91688000D01*
X123337621Y-85312000D02*
X123337621Y-87460000D01*
X123297621Y-89540000D02*
X123297621Y-91695000D01*
X123297621Y-85305000D02*
X123297621Y-87460000D01*
X123257621Y-89540000D02*
X123257621Y-91700000D01*
X123257621Y-85300000D02*
X123257621Y-87460000D01*
X123217621Y-89540000D02*
X123217621Y-91705000D01*
X123217621Y-85295000D02*
X123217621Y-87460000D01*
X123177621Y-89540000D02*
X123177621Y-91710000D01*
X123177621Y-85290000D02*
X123177621Y-87460000D01*
X123137621Y-89540000D02*
X123137621Y-91714000D01*
X123137621Y-85286000D02*
X123137621Y-87460000D01*
X123097621Y-89540000D02*
X123097621Y-91718000D01*
X123097621Y-85282000D02*
X123097621Y-87460000D01*
X123057621Y-89540000D02*
X123057621Y-91721000D01*
X123057621Y-85279000D02*
X123057621Y-87460000D01*
X123017621Y-85276000D02*
X123017621Y-91724000D01*
X122977621Y-85274000D02*
X122977621Y-91726000D01*
X122937621Y-85272000D02*
X122937621Y-91728000D01*
X122897621Y-85271000D02*
X122897621Y-91729000D01*
X122857621Y-85270000D02*
X122857621Y-91730000D01*
X122817621Y-85270000D02*
X122817621Y-91730000D01*
X119632380Y-86346000D02*
X119632380Y-86976000D01*
X119317380Y-86661000D02*
X119947380Y-86661000D01*
%TO.C,+Buz-*%
X127750000Y-81670000D02*
X130350000Y-81670000D01*
X125150000Y-81670000D02*
X126480000Y-81670000D01*
X125150000Y-83000000D02*
X125150000Y-81670000D01*
X130350000Y-84330000D02*
X130350000Y-81670000D01*
X127750000Y-84330000D02*
X127750000Y-81670000D01*
X127750000Y-84330000D02*
X130350000Y-84330000D01*
%TO.C,+Bat-*%
X136580000Y-82250000D02*
X136580000Y-84850000D01*
X136580000Y-79650000D02*
X136580000Y-80980000D01*
X135250000Y-79650000D02*
X136580000Y-79650000D01*
X133920000Y-84850000D02*
X136580000Y-84850000D01*
X133920000Y-82250000D02*
X136580000Y-82250000D01*
X133920000Y-82250000D02*
X133920000Y-84850000D01*
%TO.C,IC 555*%
X129105000Y-85860000D02*
X129105000Y-96140000D01*
X129105000Y-96140000D02*
X134405000Y-96140000D01*
X130755000Y-85860000D02*
X129105000Y-85860000D01*
X134405000Y-85860000D02*
X132755000Y-85860000D01*
X134405000Y-96140000D02*
X134405000Y-85860000D01*
X132755000Y-85860000D02*
G75*
G02*
X130755000Y-85860000I-1000000J0D01*
G01*
%TO.C,HO*%
X125580000Y-96000000D02*
X125580000Y-93400000D01*
X125580000Y-96000000D02*
X122920000Y-96000000D01*
X125580000Y-93400000D02*
X122920000Y-93400000D01*
X124250000Y-98600000D02*
X122920000Y-98600000D01*
X122920000Y-98600000D02*
X122920000Y-97270000D01*
X122920000Y-96000000D02*
X122920000Y-93400000D01*
%TO.C,10k*%
X138580000Y-101750000D02*
X135270000Y-101750000D01*
X125420000Y-101750000D02*
X128730000Y-101750000D01*
X128730000Y-100380000D02*
X135270000Y-100380000D01*
X135270000Y-103120000D01*
X128730000Y-103120000D01*
X128730000Y-100380000D01*
%TO.C,1k*%
X139000000Y-84670000D02*
X139000000Y-87980000D01*
X139000000Y-97830000D02*
X139000000Y-94520000D01*
X137630000Y-87980000D02*
X140370000Y-87980000D01*
X140370000Y-94520000D01*
X137630000Y-94520000D01*
X137630000Y-87980000D01*
%TD*%
M02*
